<svg width="33" height="33" viewBox="0 0 33 33" fill="none" xmlns="http://www.w3.org/2000/svg">
<circle cx="16.5" cy="16.5" r="16" stroke="white"/>
<path d="M24.1816 19.429L20.1772 17.6347L20.1661 17.6296C19.9583 17.5407 19.7315 17.505 19.5063 17.5258C19.2812 17.5465 19.0648 17.6231 18.8767 17.7486C18.8545 17.7632 18.8333 17.7791 18.8129 17.7962L16.744 19.5599C15.4333 18.9233 14.0801 17.5803 13.4434 16.2866L15.2098 14.1862C15.2268 14.1649 15.2429 14.1437 15.2582 14.1207C15.381 13.9331 15.4555 13.7181 15.475 13.4948C15.4946 13.2714 15.4587 13.0467 15.3704 12.8406V12.8304L13.5709 8.81924C13.4543 8.55001 13.2537 8.32573 12.9991 8.17989C12.7444 8.03405 12.4495 7.97446 12.1582 8.01003C11.0065 8.16159 9.94922 8.72724 9.18401 9.60132C8.41879 10.4754 7.99793 11.5982 8.00001 12.7599C8.00001 19.5089 13.491 25 20.2401 25C21.4018 25.0021 22.5246 24.5812 23.3986 23.816C24.2727 23.0508 24.8384 21.9935 24.9899 20.8418C25.0256 20.5506 24.9661 20.2557 24.8204 20.0011C24.6747 19.7465 24.4506 19.5458 24.1816 19.429ZM20.2401 23.64C17.3555 23.6368 14.5899 22.4895 12.5502 20.4498C10.5105 18.4101 9.36317 15.6445 9.36002 12.7599C9.35682 11.9298 9.65586 11.127 10.2013 10.5013C10.7467 9.87564 11.5013 9.46989 12.324 9.35984C12.3237 9.36323 12.3237 9.36665 12.324 9.37004L14.109 13.3651L12.352 15.468C12.3342 15.4885 12.318 15.5104 12.3036 15.5335C12.1757 15.7297 12.1006 15.9557 12.0857 16.1895C12.0709 16.4233 12.1166 16.657 12.2186 16.868C12.9887 18.443 14.5757 20.0181 16.1677 20.7874C16.3802 20.8884 16.6152 20.9326 16.8499 20.9156C17.0845 20.8986 17.3108 20.821 17.5065 20.6905C17.5283 20.6757 17.5493 20.6599 17.5694 20.6428L19.6357 18.8799L23.6308 20.6692C23.6308 20.6692 23.6376 20.6692 23.6401 20.6692C23.5314 21.4931 23.1263 22.2491 22.5005 22.7959C21.8747 23.3427 21.0711 23.6428 20.2401 23.64Z" fill="white"/>
</svg>
