<svg width="33" height="33" viewBox="0 0 33 33" fill="none" xmlns="http://www.w3.org/2000/svg">
<circle cx="16.5" cy="16.5" r="16" stroke="white"/>
<path d="M16.5 10.5C15.7358 10.5 14.9889 10.72 14.3535 11.132C13.7181 11.5441 13.2229 12.1298 12.9305 12.815C12.638 13.5002 12.5615 14.2542 12.7106 14.9817C12.8597 15.7091 13.2277 16.3773 13.768 16.9018C14.3083 17.4262 14.9968 17.7834 15.7462 17.9281C16.4957 18.0728 17.2726 17.9985 17.9785 17.7147C18.6845 17.4308 19.288 16.9502 19.7125 16.3335C20.137 15.7168 20.3636 14.9918 20.3636 14.2501C20.3636 13.2555 19.9566 12.3017 19.232 11.5984C18.5074 10.8951 17.5247 10.5 16.5 10.5ZM16.5 16.5001C16.0415 16.5001 15.5933 16.3681 15.2121 16.1209C14.8309 15.8737 14.5337 15.5223 14.3583 15.1111C14.1828 14.7 14.1369 14.2476 14.2264 13.8111C14.3158 13.3747 14.5366 12.9737 14.8608 12.6591C15.185 12.3444 15.5981 12.1301 16.0477 12.0433C16.4974 11.9565 16.9635 12.001 17.3871 12.1713C17.8107 12.3416 18.1728 12.63 18.4275 13C18.6822 13.3701 18.8182 13.8051 18.8182 14.2501C18.8182 14.8468 18.5739 15.4191 18.1392 15.8411C17.7045 16.2631 17.1148 16.5001 16.5 16.5001ZM16.5 6C14.2464 6.00248 12.0859 6.87248 10.4924 8.41913C8.89891 9.96579 8.00256 12.0628 8 14.2501C8 17.1939 9.40153 20.3139 12.0568 23.2736C13.2499 24.611 14.5928 25.8153 16.0605 26.8643C16.1904 26.9526 16.3452 27 16.5039 27C16.6625 27 16.8173 26.9526 16.9472 26.8643C18.4123 25.8149 19.7525 24.6106 20.9432 23.2736C23.5946 20.3139 25 17.1939 25 14.2501C24.9974 12.0628 24.1011 9.96579 22.5076 8.41913C20.9141 6.87248 18.7536 6.00248 16.5 6ZM16.5 25.3127C14.9034 24.0939 9.54545 19.6173 9.54545 14.2501C9.54545 12.4599 10.2782 10.7429 11.5824 9.47706C12.8866 8.21118 14.6555 7.50002 16.5 7.50002C18.3445 7.50002 20.1134 8.21118 21.4176 9.47706C22.7218 10.7429 23.4545 12.4599 23.4545 14.2501C23.4545 19.6154 18.0966 24.0939 16.5 25.3127Z" fill="white"/>
</svg>
